<?xml version="1.0" encoding="utf-8"?>
<!-- Generator: Adobe Illustrator 16.0.0, SVG Export Plug-In . SVG Version: 6.00 Build 0)  -->
<!DOCTYPE svg PUBLIC "-//W3C//DTD SVG 1.1//EN" "http://www.w3.org/Graphics/SVG/1.1/DTD/svg11.dtd">
<svg version="1.1" id="Layer_1" xmlns="http://www.w3.org/2000/svg" xmlns:xlink="http://www.w3.org/1999/xlink" x="0px" y="0px"
	 width="256px" height="256px" viewBox="0 0 256 256" enable-background="new 0 0 256 256" xml:space="preserve">
<path fill="#F2BC1A" d="M209.92,125.78v76.86c0,6.38-4.99,11.601-11.26,11.971c-0.25,0.02-0.49,0.029-0.74,0.029H59.15
	c-1,0-1.98-0.12-2.91-0.359c-5.22-1.29-9.09-6.011-9.09-11.641v-76.86c0-6.63,5.37-12,12-12h138.77
	C204.54,113.78,209.92,119.15,209.92,125.78z"/>
<polygon fill="#F2BC1A" points="219.87,128 33.29,128 128.15,10.79 128.53,10.32 "/>
<path fill="#F2BC1A" d="M128.53,10.32v17.75l-66.26,85.71l-6.03,7.8v92.7c-5.22-1.29-9.09-6.011-9.09-11.641V128H33.29l94.86-117.21
	L128.53,10.32z"/>
<path fill="#F2BC1A" d="M219.87,128h-9.95v74.64c0,6.38-4.99,11.601-11.26,11.971v-93.9l-5.25-6.93l-64.88-85.71l-0.38-17.28
	l0.38-0.47L219.87,128z"/>
<path fill="#F2BC1A" d="M150.391,144.4v70.239H102.77V144.4c0-6.631,5.37-12,12-12h23.621
	C145.02,132.4,150.391,137.77,150.391,144.4z"/>
</svg>
